<svg version="1.1" baseProfile="full" xmlns="http://www.w3.org/2000/svg" viewBox="0 0 900 150" opacity="0.5"><g><rect width="15" height="15" x="0" y="38" style="fill: #E5F3BB;"></rect><rect width="15" height="15" x="0" y="56" style="fill: #E0E0E0;"></rect><rect width="15" height="15" x="0" y="74" style="fill: #DF2935;"></rect><rect width="15" height="15" x="0" y="92" style="fill: #8EB1C7;"></rect><rect width="15" height="15" x="0" y="110" style="fill: #AFA2FF;"></rect><rect width="15" height="15" x="0" y="128" style="fill: #E5F3BB;"></rect><rect width="15" height="15" x="18" y="20" style="fill: #DF2935;"></rect><rect width="15" height="15" x="18" y="38" style="fill: #DF2935;"></rect><rect width="15" height="15" x="18" y="56" style="fill: #DF2935;"></rect><rect width="15" height="15" x="18" y="74" style="fill: #FFE548;"></rect><rect width="15" height="15" x="18" y="92" style="fill: #DF2935;"></rect><rect width="15" height="15" x="18" y="110" style="fill: #8EB1C7;"></rect><rect width="15" height="15" x="18" y="128" style="fill: #8EB1C7;"></rect><rect width="15" height="15" x="36" y="20" style="fill: #8EB1C7;"></rect><rect width="15" height="15" x="36" y="38" style="fill: #FFE548;"></rect><rect width="15" height="15" x="36" y="56" style="fill: #AFA2FF;"></rect><rect width="15" height="15" x="36" y="74" style="fill: #FFE548;"></rect><rect width="15" height="15" x="36" y="92" style="fill: #DF2935;"></rect><rect width="15" height="15" x="36" y="110" style="fill: #8EB1C7;"></rect><rect width="15" height="15" x="36" y="128" style="fill: #8EB1C7;"></rect><rect width="15" height="15" x="54" y="20" style="fill: #8EB1C7;"></rect><rect width="15" height="15" x="54" y="38" style="fill: #E0E0E0;"></rect><rect width="15" height="15" x="54" y="56" style="fill: #DF2935;"></rect><rect width="15" height="15" x="54" y="74" style="fill: #AFA2FF;"></rect><rect width="15" height="15" x="54" y="92" style="fill: #8EB1C7;"></rect><rect width="15" height="15" x="54" y="110" style="fill: #DF2935;"></rect><rect width="15" height="15" x="54" y="128" style="fill: #FFE548;"></rect><rect width="15" height="15" x="72" y="20" style="fill: #E5F3BB;"></rect><rect width="15" height="15" x="72" y="38" style="fill: #8EB1C7;"></rect><rect width="15" height="15" x="72" y="56" style="fill: #E5F3BB;"></rect><rect width="15" height="15" x="72" y="74" style="fill: #DF2935;"></rect><rect width="15" height="15" x="72" y="92" style="fill: #DF2935;"></rect><rect width="15" height="15" x="72" y="110" style="fill: #FFE548;"></rect><rect width="15" height="15" x="72" y="128" style="fill: #FFE548;"></rect><rect width="15" height="15" x="90" y="20" style="fill: #E5F3BB;"></rect><rect width="15" height="15" x="90" y="38" style="fill: #FFE548;"></rect><rect width="15" height="15" x="90" y="56" style="fill: #E5F3BB;"></rect><rect width="15" height="15" x="90" y="74" style="fill: #FFE548;"></rect><rect width="15" height="15" x="90" y="92" style="fill: #AFA2FF;"></rect><rect width="15" height="15" x="90" y="110" style="fill: #E5F3BB;"></rect><rect width="15" height="15" x="90" y="128" style="fill: #DF2935;"></rect><rect width="15" height="15" x="108" y="20" style="fill: #AFA2FF;"></rect><rect width="15" height="15" x="108" y="38" style="fill: #AFA2FF;"></rect><rect width="15" height="15" x="108" y="56" style="fill: #8EB1C7;"></rect><rect width="15" height="15" x="108" y="74" style="fill: #AFA2FF;"></rect><rect width="15" height="15" x="108" y="92" style="fill: #DF2935;"></rect><rect width="15" height="15" x="108" y="110" style="fill: #DF2935;"></rect><rect width="15" height="15" x="108" y="128" style="fill: #E0E0E0;"></rect><rect width="15" height="15" x="126" y="20" style="fill: #AFA2FF;"></rect><rect width="15" height="15" x="126" y="38" style="fill: #E5F3BB;"></rect><rect width="15" height="15" x="126" y="56" style="fill: #DF2935;"></rect><rect width="15" height="15" x="126" y="74" style="fill: #AFA2FF;"></rect><rect width="15" height="15" x="126" y="92" style="fill: #8EB1C7;"></rect><rect width="15" height="15" x="126" y="110" style="fill: #DF2935;"></rect><rect width="15" height="15" x="126" y="128" style="fill: #FFE548;"></rect><rect width="15" height="15" x="144" y="20" style="fill: #AFA2FF;"></rect><rect width="15" height="15" x="144" y="38" style="fill: #FFE548;"></rect><rect width="15" height="15" x="144" y="56" style="fill: #8EB1C7;"></rect><rect width="15" height="15" x="144" y="74" style="fill: #DF2935;"></rect><rect width="15" height="15" x="144" y="92" style="fill: #8EB1C7;"></rect><rect width="15" height="15" x="144" y="110" style="fill: #DF2935;"></rect><rect width="15" height="15" x="144" y="128" style="fill: #AFA2FF;"></rect><rect width="15" height="15" x="162" y="20" style="fill: #8EB1C7;"></rect><rect width="15" height="15" x="162" y="38" style="fill: #FFE548;"></rect><rect width="15" height="15" x="162" y="56" style="fill: #FFE548;"></rect><rect width="15" height="15" x="162" y="74" style="fill: #FFE548;"></rect><rect width="15" height="15" x="162" y="92" style="fill: #8EB1C7;"></rect><rect width="15" height="15" x="162" y="110" style="fill: #8EB1C7;"></rect><rect width="15" height="15" x="162" y="128" style="fill: #FFE548;"></rect><rect width="15" height="15" x="180" y="20" style="fill: #AFA2FF;"></rect><rect width="15" height="15" x="180" y="38" style="fill: #AFA2FF;"></rect><rect width="15" height="15" x="180" y="56" style="fill: #E5F3BB;"></rect><rect width="15" height="15" x="180" y="74" style="fill: #DF2935;"></rect><rect width="15" height="15" x="180" y="92" style="fill: #AFA2FF;"></rect><rect width="15" height="15" x="180" y="110" style="fill: #E0E0E0;"></rect><rect width="15" height="15" x="180" y="128" style="fill: #E0E0E0;"></rect><rect width="15" height="15" x="198" y="20" style="fill: #FFE548;"></rect><rect width="15" height="15" x="198" y="38" style="fill: #FFE548;"></rect><rect width="15" height="15" x="198" y="56" style="fill: #8EB1C7;"></rect><rect width="15" height="15" x="198" y="74" style="fill: #E0E0E0;"></rect><rect width="15" height="15" x="198" y="92" style="fill: #E5F3BB;"></rect><rect width="15" height="15" x="198" y="110" style="fill: #E0E0E0;"></rect><rect width="15" height="15" x="198" y="128" style="fill: #FFE548;"></rect><rect width="15" height="15" x="216" y="20" style="fill: #8EB1C7;"></rect><rect width="15" height="15" x="216" y="38" style="fill: #8EB1C7;"></rect><rect width="15" height="15" x="216" y="56" style="fill: #E5F3BB;"></rect><rect width="15" height="15" x="216" y="74" style="fill: #8EB1C7;"></rect><rect width="15" height="15" x="216" y="92" style="fill: #E0E0E0;"></rect><rect width="15" height="15" x="216" y="110" style="fill: #DF2935;"></rect><rect width="15" height="15" x="216" y="128" style="fill: #DF2935;"></rect><rect width="15" height="15" x="234" y="20" style="fill: #DF2935;"></rect><rect width="15" height="15" x="234" y="38" style="fill: #E5F3BB;"></rect><rect width="15" height="15" x="234" y="56" style="fill: #8EB1C7;"></rect><rect width="15" height="15" x="234" y="74" style="fill: #AFA2FF;"></rect><rect width="15" height="15" x="234" y="92" style="fill: #AFA2FF;"></rect><rect width="15" height="15" x="234" y="110" style="fill: #E0E0E0;"></rect><rect width="15" height="15" x="234" y="128" style="fill: #DF2935;"></rect><rect width="15" height="15" x="252" y="20" style="fill: #DF2935;"></rect><rect width="15" height="15" x="252" y="38" style="fill: #DF2935;"></rect><rect width="15" height="15" x="252" y="56" style="fill: #E0E0E0;"></rect><rect width="15" height="15" x="252" y="74" style="fill: #AFA2FF;"></rect><rect width="15" height="15" x="252" y="92" style="fill: #8EB1C7;"></rect><rect width="15" height="15" x="252" y="110" style="fill: #AFA2FF;"></rect><rect width="15" height="15" x="252" y="128" style="fill: #E0E0E0;"></rect><rect width="15" height="15" x="270" y="20" style="fill: #E0E0E0;"></rect><rect width="15" height="15" x="270" y="38" style="fill: #AFA2FF;"></rect><rect width="15" height="15" x="270" y="56" style="fill: #8EB1C7;"></rect><rect width="15" height="15" x="270" y="74" style="fill: #8EB1C7;"></rect><rect width="15" height="15" x="270" y="92" style="fill: #E5F3BB;"></rect><rect width="15" height="15" x="270" y="110" style="fill: #FFE548;"></rect><rect width="15" height="15" x="270" y="128" style="fill: #DF2935;"></rect><rect width="15" height="15" x="288" y="20" style="fill: #FFE548;"></rect><rect width="15" height="15" x="288" y="38" style="fill: #8EB1C7;"></rect><rect width="15" height="15" x="288" y="56" style="fill: #DF2935;"></rect><rect width="15" height="15" x="288" y="74" style="fill: #AFA2FF;"></rect><rect width="15" height="15" x="288" y="92" style="fill: #E5F3BB;"></rect><rect width="15" height="15" x="288" y="110" style="fill: #E0E0E0;"></rect><rect width="15" height="15" x="288" y="128" style="fill: #AFA2FF;"></rect><rect width="15" height="15" x="306" y="20" style="fill: #8EB1C7;"></rect><rect width="15" height="15" x="306" y="38" style="fill: #FFE548;"></rect><rect width="15" height="15" x="306" y="56" style="fill: #E0E0E0;"></rect><rect width="15" height="15" x="306" y="74" style="fill: #AFA2FF;"></rect><rect width="15" height="15" x="306" y="92" style="fill: #8EB1C7;"></rect><rect width="15" height="15" x="306" y="110" style="fill: #8EB1C7;"></rect><rect width="15" height="15" x="306" y="128" style="fill: #E5F3BB;"></rect><rect width="15" height="15" x="324" y="20" style="fill: #FFE548;"></rect><rect width="15" height="15" x="324" y="38" style="fill: #FFE548;"></rect><rect width="15" height="15" x="324" y="56" style="fill: #8EB1C7;"></rect><rect width="15" height="15" x="324" y="74" style="fill: #AFA2FF;"></rect><rect width="15" height="15" x="324" y="92" style="fill: #E5F3BB;"></rect><rect width="15" height="15" x="324" y="110" style="fill: #E0E0E0;"></rect><rect width="15" height="15" x="324" y="128" style="fill: #8EB1C7;"></rect><rect width="15" height="15" x="342" y="20" style="fill: #E5F3BB;"></rect><rect width="15" height="15" x="342" y="38" style="fill: #FFE548;"></rect><rect width="15" height="15" x="342" y="56" style="fill: #8EB1C7;"></rect><rect width="15" height="15" x="342" y="74" style="fill: #FFE548;"></rect><rect width="15" height="15" x="342" y="92" style="fill: #E0E0E0;"></rect><rect width="15" height="15" x="342" y="110" style="fill: #E0E0E0;"></rect><rect width="15" height="15" x="342" y="128" style="fill: #8EB1C7;"></rect><rect width="15" height="15" x="360" y="20" style="fill: #FFE548;"></rect><rect width="15" height="15" x="360" y="38" style="fill: #AFA2FF;"></rect><rect width="15" height="15" x="360" y="56" style="fill: #8EB1C7;"></rect><rect width="15" height="15" x="360" y="74" style="fill: #E5F3BB;"></rect><rect width="15" height="15" x="360" y="92" style="fill: #8EB1C7;"></rect><rect width="15" height="15" x="360" y="110" style="fill: #E0E0E0;"></rect><rect width="15" height="15" x="360" y="128" style="fill: #8EB1C7;"></rect><rect width="15" height="15" x="378" y="20" style="fill: #AFA2FF;"></rect><rect width="15" height="15" x="378" y="38" style="fill: #E0E0E0;"></rect><rect width="15" height="15" x="378" y="56" style="fill: #FFE548;"></rect><rect width="15" height="15" x="378" y="74" style="fill: #FFE548;"></rect><rect width="15" height="15" x="378" y="92" style="fill: #DF2935;"></rect><rect width="15" height="15" x="378" y="110" style="fill: #E0E0E0;"></rect><rect width="15" height="15" x="378" y="128" style="fill: #DF2935;"></rect><rect width="15" height="15" x="396" y="20" style="fill: #E0E0E0;"></rect><rect width="15" height="15" x="396" y="38" style="fill: #DF2935;"></rect><rect width="15" height="15" x="396" y="56" style="fill: #E0E0E0;"></rect><rect width="15" height="15" x="396" y="74" style="fill: #AFA2FF;"></rect><rect width="15" height="15" x="396" y="92" style="fill: #E0E0E0;"></rect><rect width="15" height="15" x="396" y="110" style="fill: #E5F3BB;"></rect><rect width="15" height="15" x="396" y="128" style="fill: #DF2935;"></rect><rect width="15" height="15" x="414" y="20" style="fill: #E0E0E0;"></rect><rect width="15" height="15" x="414" y="38" style="fill: #8EB1C7;"></rect><rect width="15" height="15" x="414" y="56" style="fill: #E0E0E0;"></rect><rect width="15" height="15" x="414" y="74" style="fill: #AFA2FF;"></rect><rect width="15" height="15" x="414" y="92" style="fill: #DF2935;"></rect><rect width="15" height="15" x="414" y="110" style="fill: #DF2935;"></rect><rect width="15" height="15" x="414" y="128" style="fill: #8EB1C7;"></rect><rect width="15" height="15" x="432" y="20" style="fill: #E5F3BB;"></rect><rect width="15" height="15" x="432" y="38" style="fill: #FFE548;"></rect><rect width="15" height="15" x="432" y="56" style="fill: #FFE548;"></rect><rect width="15" height="15" x="432" y="74" style="fill: #E0E0E0;"></rect><rect width="15" height="15" x="432" y="92" style="fill: #E5F3BB;"></rect><rect width="15" height="15" x="432" y="110" style="fill: #E5F3BB;"></rect><rect width="15" height="15" x="432" y="128" style="fill: #E5F3BB;"></rect><rect width="15" height="15" x="450" y="20" style="fill: #DF2935;"></rect><rect width="15" height="15" x="450" y="38" style="fill: #FFE548;"></rect><rect width="15" height="15" x="450" y="56" style="fill: #AFA2FF;"></rect><rect width="15" height="15" x="450" y="74" style="fill: #E0E0E0;"></rect><rect width="15" height="15" x="450" y="92" style="fill: #E5F3BB;"></rect><rect width="15" height="15" x="450" y="110" style="fill: #DF2935;"></rect><rect width="15" height="15" x="450" y="128" style="fill: #E0E0E0;"></rect><rect width="15" height="15" x="468" y="20" style="fill: #DF2935;"></rect><rect width="15" height="15" x="468" y="38" style="fill: #FFE548;"></rect><rect width="15" height="15" x="468" y="56" style="fill: #DF2935;"></rect><rect width="15" height="15" x="468" y="74" style="fill: #E0E0E0;"></rect><rect width="15" height="15" x="468" y="92" style="fill: #DF2935;"></rect><rect width="15" height="15" x="468" y="110" style="fill: #8EB1C7;"></rect><rect width="15" height="15" x="468" y="128" style="fill: #E5F3BB;"></rect><rect width="15" height="15" x="486" y="20" style="fill: #E5F3BB;"></rect><rect width="15" height="15" x="486" y="38" style="fill: #DF2935;"></rect><rect width="15" height="15" x="486" y="56" style="fill: #FFE548;"></rect><rect width="15" height="15" x="486" y="74" style="fill: #FFE548;"></rect><rect width="15" height="15" x="486" y="92" style="fill: #E5F3BB;"></rect><rect width="15" height="15" x="486" y="110" style="fill: #AFA2FF;"></rect><rect width="15" height="15" x="486" y="128" style="fill: #FFE548;"></rect><rect width="15" height="15" x="504" y="20" style="fill: #FFE548;"></rect><rect width="15" height="15" x="504" y="38" style="fill: #8EB1C7;"></rect><rect width="15" height="15" x="504" y="56" style="fill: #AFA2FF;"></rect><rect width="15" height="15" x="504" y="74" style="fill: #8EB1C7;"></rect><rect width="15" height="15" x="504" y="92" style="fill: #FFE548;"></rect><rect width="15" height="15" x="504" y="110" style="fill: #E0E0E0;"></rect><rect width="15" height="15" x="504" y="128" style="fill: #8EB1C7;"></rect><rect width="15" height="15" x="522" y="20" style="fill: #AFA2FF;"></rect><rect width="15" height="15" x="522" y="38" style="fill: #E5F3BB;"></rect><rect width="15" height="15" x="522" y="56" style="fill: #AFA2FF;"></rect><rect width="15" height="15" x="522" y="74" style="fill: #E5F3BB;"></rect><rect width="15" height="15" x="522" y="92" style="fill: #FFE548;"></rect><rect width="15" height="15" x="522" y="110" style="fill: #FFE548;"></rect><rect width="15" height="15" x="522" y="128" style="fill: #FFE548;"></rect><rect width="15" height="15" x="540" y="20" style="fill: #8EB1C7;"></rect><rect width="15" height="15" x="540" y="38" style="fill: #DF2935;"></rect><rect width="15" height="15" x="540" y="56" style="fill: #FFE548;"></rect><rect width="15" height="15" x="540" y="74" style="fill: #DF2935;"></rect><rect width="15" height="15" x="540" y="92" style="fill: #E5F3BB;"></rect><rect width="15" height="15" x="540" y="110" style="fill: #FFE548;"></rect><rect width="15" height="15" x="540" y="128" style="fill: #8EB1C7;"></rect><rect width="15" height="15" x="558" y="20" style="fill: #E5F3BB;"></rect><rect width="15" height="15" x="558" y="38" style="fill: #FFE548;"></rect><rect width="15" height="15" x="558" y="56" style="fill: #E5F3BB;"></rect><rect width="15" height="15" x="558" y="74" style="fill: #E5F3BB;"></rect><rect width="15" height="15" x="558" y="92" style="fill: #AFA2FF;"></rect><rect width="15" height="15" x="558" y="110" style="fill: #FFE548;"></rect><rect width="15" height="15" x="558" y="128" style="fill: #DF2935;"></rect><rect width="15" height="15" x="576" y="20" style="fill: #E5F3BB;"></rect><rect width="15" height="15" x="576" y="38" style="fill: #E0E0E0;"></rect><rect width="15" height="15" x="576" y="56" style="fill: #AFA2FF;"></rect><rect width="15" height="15" x="576" y="74" style="fill: #E0E0E0;"></rect><rect width="15" height="15" x="576" y="92" style="fill: #DF2935;"></rect><rect width="15" height="15" x="576" y="110" style="fill: #E0E0E0;"></rect><rect width="15" height="15" x="576" y="128" style="fill: #FFE548;"></rect><rect width="15" height="15" x="594" y="20" style="fill: #E5F3BB;"></rect><rect width="15" height="15" x="594" y="38" style="fill: #E5F3BB;"></rect><rect width="15" height="15" x="594" y="56" style="fill: #FFE548;"></rect><rect width="15" height="15" x="594" y="74" style="fill: #8EB1C7;"></rect><rect width="15" height="15" x="594" y="92" style="fill: #AFA2FF;"></rect><rect width="15" height="15" x="594" y="110" style="fill: #AFA2FF;"></rect><rect width="15" height="15" x="594" y="128" style="fill: #FFE548;"></rect><rect width="15" height="15" x="612" y="20" style="fill: #AFA2FF;"></rect><rect width="15" height="15" x="612" y="38" style="fill: #AFA2FF;"></rect><rect width="15" height="15" x="612" y="56" style="fill: #E0E0E0;"></rect><rect width="15" height="15" x="612" y="74" style="fill: #E5F3BB;"></rect><rect width="15" height="15" x="612" y="92" style="fill: #8EB1C7;"></rect><rect width="15" height="15" x="612" y="110" style="fill: #DF2935;"></rect><rect width="15" height="15" x="612" y="128" style="fill: #AFA2FF;"></rect><rect width="15" height="15" x="630" y="20" style="fill: #AFA2FF;"></rect><rect width="15" height="15" x="630" y="38" style="fill: #E0E0E0;"></rect><rect width="15" height="15" x="630" y="56" style="fill: #DF2935;"></rect><rect width="15" height="15" x="630" y="74" style="fill: #8EB1C7;"></rect><rect width="15" height="15" x="630" y="92" style="fill: #DF2935;"></rect><rect width="15" height="15" x="630" y="110" style="fill: #DF2935;"></rect><rect width="15" height="15" x="630" y="128" style="fill: #8EB1C7;"></rect><rect width="15" height="15" x="648" y="20" style="fill: #E0E0E0;"></rect><rect width="15" height="15" x="648" y="38" style="fill: #8EB1C7;"></rect><rect width="15" height="15" x="648" y="56" style="fill: #AFA2FF;"></rect><rect width="15" height="15" x="648" y="74" style="fill: #FFE548;"></rect><rect width="15" height="15" x="648" y="92" style="fill: #FFE548;"></rect><rect width="15" height="15" x="648" y="110" style="fill: #DF2935;"></rect><rect width="15" height="15" x="648" y="128" style="fill: #DF2935;"></rect><rect width="15" height="15" x="666" y="20" style="fill: #AFA2FF;"></rect><rect width="15" height="15" x="666" y="38" style="fill: #DF2935;"></rect><rect width="15" height="15" x="666" y="56" style="fill: #E0E0E0;"></rect><rect width="15" height="15" x="666" y="74" style="fill: #E0E0E0;"></rect><rect width="15" height="15" x="666" y="92" style="fill: #8EB1C7;"></rect><rect width="15" height="15" x="666" y="110" style="fill: #DF2935;"></rect><rect width="15" height="15" x="666" y="128" style="fill: #DF2935;"></rect><rect width="15" height="15" x="684" y="20" style="fill: #FFE548;"></rect><rect width="15" height="15" x="684" y="38" style="fill: #DF2935;"></rect><rect width="15" height="15" x="684" y="56" style="fill: #AFA2FF;"></rect><rect width="15" height="15" x="684" y="74" style="fill: #DF2935;"></rect><rect width="15" height="15" x="684" y="92" style="fill: #DF2935;"></rect><rect width="15" height="15" x="684" y="110" style="fill: #DF2935;"></rect><rect width="15" height="15" x="684" y="128" style="fill: #E5F3BB;"></rect><rect width="15" height="15" x="702" y="20" style="fill: #FFE548;"></rect><rect width="15" height="15" x="702" y="38" style="fill: #E5F3BB;"></rect><rect width="15" height="15" x="702" y="56" style="fill: #E5F3BB;"></rect><rect width="15" height="15" x="702" y="74" style="fill: #8EB1C7;"></rect><rect width="15" height="15" x="702" y="92" style="fill: #AFA2FF;"></rect><rect width="15" height="15" x="702" y="110" style="fill: #FFE548;"></rect><rect width="15" height="15" x="702" y="128" style="fill: #FFE548;"></rect><rect width="15" height="15" x="720" y="20" style="fill: #AFA2FF;"></rect><rect width="15" height="15" x="720" y="38" style="fill: #AFA2FF;"></rect><rect width="15" height="15" x="720" y="56" style="fill: #FFE548;"></rect><rect width="15" height="15" x="720" y="74" style="fill: #E0E0E0;"></rect><rect width="15" height="15" x="720" y="92" style="fill: #E0E0E0;"></rect><rect width="15" height="15" x="720" y="110" style="fill: #E5F3BB;"></rect><rect width="15" height="15" x="720" y="128" style="fill: #FFE548;"></rect><rect width="15" height="15" x="738" y="20" style="fill: #E5F3BB;"></rect><rect width="15" height="15" x="738" y="38" style="fill: #DF2935;"></rect><rect width="15" height="15" x="738" y="56" style="fill: #FFE548;"></rect><rect width="15" height="15" x="738" y="74" style="fill: #E5F3BB;"></rect><rect width="15" height="15" x="738" y="92" style="fill: #8EB1C7;"></rect><rect width="15" height="15" x="738" y="110" style="fill: #E0E0E0;"></rect><rect width="15" height="15" x="738" y="128" style="fill: #DF2935;"></rect><rect width="15" height="15" x="756" y="20" style="fill: #8EB1C7;"></rect><rect width="15" height="15" x="756" y="38" style="fill: #E0E0E0;"></rect><rect width="15" height="15" x="756" y="56" style="fill: #E5F3BB;"></rect><rect width="15" height="15" x="756" y="74" style="fill: #AFA2FF;"></rect><rect width="15" height="15" x="756" y="92" style="fill: #FFE548;"></rect><rect width="15" height="15" x="756" y="110" style="fill: #FFE548;"></rect><rect width="15" height="15" x="756" y="128" style="fill: #AFA2FF;"></rect><rect width="15" height="15" x="774" y="20" style="fill: #DF2935;"></rect><rect width="15" height="15" x="774" y="38" style="fill: #E0E0E0;"></rect><rect width="15" height="15" x="774" y="56" style="fill: #AFA2FF;"></rect><rect width="15" height="15" x="774" y="74" style="fill: #8EB1C7;"></rect><rect width="15" height="15" x="774" y="92" style="fill: #E5F3BB;"></rect><rect width="15" height="15" x="774" y="110" style="fill: #FFE548;"></rect><rect width="15" height="15" x="774" y="128" style="fill: #DF2935;"></rect><rect width="15" height="15" x="792" y="20" style="fill: #FFE548;"></rect><rect width="15" height="15" x="792" y="38" style="fill: #E5F3BB;"></rect><rect width="15" height="15" x="792" y="56" style="fill: #8EB1C7;"></rect><rect width="15" height="15" x="792" y="74" style="fill: #AFA2FF;"></rect><rect width="15" height="15" x="792" y="92" style="fill: #E0E0E0;"></rect><rect width="15" height="15" x="792" y="110" style="fill: #E0E0E0;"></rect><rect width="15" height="15" x="792" y="128" style="fill: #E0E0E0;"></rect><rect width="15" height="15" x="810" y="20" style="fill: #FFE548;"></rect><rect width="15" height="15" x="810" y="38" style="fill: #FFE548;"></rect><rect width="15" height="15" x="810" y="56" style="fill: #E0E0E0;"></rect><rect width="15" height="15" x="810" y="74" style="fill: #E0E0E0;"></rect><rect width="15" height="15" x="810" y="92" style="fill: #8EB1C7;"></rect><rect width="15" height="15" x="810" y="110" style="fill: #FFE548;"></rect><rect width="15" height="15" x="810" y="128" style="fill: #8EB1C7;"></rect><rect width="15" height="15" x="828" y="20" style="fill: #8EB1C7;"></rect><rect width="15" height="15" x="828" y="38" style="fill: #E5F3BB;"></rect><rect width="15" height="15" x="828" y="56" style="fill: #DF2935;"></rect><rect width="15" height="15" x="828" y="74" style="fill: #FFE548;"></rect><rect width="15" height="15" x="828" y="92" style="fill: #FFE548;"></rect><rect width="15" height="15" x="828" y="110" style="fill: #AFA2FF;"></rect><rect width="15" height="15" x="828" y="128" style="fill: #8EB1C7;"></rect><rect width="15" height="15" x="846" y="20" style="fill: #E5F3BB;"></rect><rect width="15" height="15" x="846" y="38" style="fill: #DF2935;"></rect><rect width="15" height="15" x="846" y="56" style="fill: #E5F3BB;"></rect><rect width="15" height="15" x="846" y="74" style="fill: #AFA2FF;"></rect><rect width="15" height="15" x="846" y="92" style="fill: #E0E0E0;"></rect><rect width="15" height="15" x="846" y="110" style="fill: #E5F3BB;"></rect><rect width="15" height="15" x="846" y="128" style="fill: #AFA2FF;"></rect><rect width="15" height="15" x="864" y="20" style="fill: #E0E0E0;"></rect><rect width="15" height="15" x="864" y="38" style="fill: #FFE548;"></rect><rect width="15" height="15" x="864" y="56" style="fill: #AFA2FF;"></rect><rect width="15" height="15" x="864" y="74" style="fill: #E5F3BB;"></rect><rect width="15" height="15" x="864" y="92" style="fill: #DF2935;"></rect><rect width="15" height="15" x="864" y="110" style="fill: #AFA2FF;"></rect><rect width="15" height="15" x="864" y="128" style="fill: #DF2935;"></rect><rect width="15" height="15" x="882" y="20" style="fill: #8EB1C7;"></rect><rect width="15" height="15" x="882" y="38" style="fill: #DF2935;"></rect><rect width="15" height="15" x="882" y="56" style="fill: #AFA2FF;"></rect><rect width="15" height="15" x="882" y="74" style="fill: #AFA2FF;"></rect><rect width="15" height="15" x="882" y="92" style="fill: #E5F3BB;"></rect><rect width="15" height="15" x="882" y="110" style="fill: #DF2935;"></rect><rect width="15" height="15" x="882" y="128" style="fill: #E5F3BB;"></rect><rect width="15" height="15" x="900" y="20" style="fill: #AFA2FF;"></rect><rect width="15" height="15" x="900" y="38" style="fill: #FFE548;"></rect><rect width="15" height="15" x="900" y="56" style="fill: #E5F3BB;"></rect><rect width="15" height="15" x="900" y="74" style="fill: #8EB1C7;"></rect><rect width="15" height="15" x="900" y="92" style="fill: #FFE548;"></rect><rect width="15" height="15" x="900" y="110" style="fill: #E5F3BB;"></rect><rect width="15" height="15" x="900" y="128" style="fill: #E0E0E0;"></rect><rect width="15" height="15" x="918" y="20" style="fill: #E5F3BB;"></rect><rect width="15" height="15" x="918" y="38" style="fill: #E5F3BB;"></rect><rect width="15" height="15" x="918" y="56" style="fill: #8EB1C7;"></rect><rect width="15" height="15" x="918" y="74" style="fill: #DF2935;"></rect><rect width="15" height="15" x="918" y="92" style="fill: #E0E0E0;"></rect><rect width="15" height="15" x="918" y="110" style="fill: #FFE548;"></rect><rect width="15" height="15" x="918" y="128" style="fill: #E0E0E0;"></rect><rect width="15" height="15" x="936" y="20" style="fill: #DF2935;"></rect><rect width="15" height="15" x="936" y="38" style="fill: #8EB1C7;"></rect></g></svg>
